<svg width="20" height="20" viewBox="0 0 20 20" fill="none" xmlns="http://www.w3.org/2000/svg">
  <path d="M14.1552 19.9975H5.8437C3.88766 20.0702 2.23776 18.5542 2.14493 16.5986V12.143C2.14493 11.7484 2.46447 11.4289 2.85898 11.4289C3.25349 11.4289 3.57303 11.7484 3.57303 12.143V16.5986C3.66452 17.7656 4.67534 18.643 5.8437 18.5694H14.1552C15.3236 18.643 16.3344 17.7656 16.4259 16.5986V12.143C16.4259 11.7484 16.7454 11.4289 17.1399 11.4289C17.5345 11.4289 17.854 11.7484 17.854 12.143V16.5986C17.7612 18.5542 16.1113 20.0702 14.1552 19.9975ZM19.7891 10.5078C20.0689 10.2302 20.0711 9.77812 19.7931 9.49785C19.7917 9.49651 19.7904 9.49518 19.7891 9.49384L10.5064 0.211209C10.2289 -0.068609 9.77677 -0.0708404 9.49651 0.207192C9.49517 0.208531 9.49383 0.20987 9.49249 0.211209L0.209863 9.49384C-0.0699544 9.77365 -0.0699544 10.228 0.209863 10.5078C0.489681 10.7876 0.943994 10.7876 1.22381 10.5078L9.99947 1.72499L18.7751 10.5078C19.0527 10.7876 19.5048 10.7898 19.7851 10.5118C19.7864 10.5105 19.7877 10.5091 19.7891 10.5078Z" fill="#A49171"/>
</svg>
