<svg width="14" height="20" viewBox="0 0 14 20" fill="none" xmlns="http://www.w3.org/2000/svg">
<path d="M11.1666 4.66845V3.92625C12.0276 3.70242 12.6643 2.92154 12.6643 1.99535C12.6643 0.894939 11.7651 1.27832e-07 10.66 1.27832e-07H2.69966C1.59417 -0.000390505 0.694936 0.894549 0.694936 1.99496C0.694936 2.92115 1.33206 3.70203 2.19262 3.92586V4.66806C0.960956 4.80556 0 5.85324 0 7.12084V17.532C0 18.8929 1.10705 20 2.46802 20H10.892C12.253 20 13.36 18.8929 13.36 17.532V7.12084C13.36 5.85324 12.3991 4.80556 11.167 4.66806L11.1666 4.66845ZM1.86683 1.99496C1.86683 1.54105 2.24028 1.17151 2.69966 1.17151H10.66C11.119 1.17151 11.4924 1.54105 11.4924 1.99496C11.4924 2.44888 11.119 2.81841 10.66 2.81841H2.69966C2.24067 2.81841 1.86683 2.44888 1.86683 1.99496ZM9.99473 3.99031V4.65283H3.36452V3.99031H9.99473ZM12.1877 17.532C12.1877 18.2465 11.6065 18.8281 10.8916 18.8281H2.46802C1.75355 18.8281 1.1719 18.2468 1.1719 17.532V16.4734H12.1877V17.532ZM12.1877 15.3019H1.1719V9.34823H12.1877V15.3019ZM12.1877 8.17594H1.1719V7.12084C1.1719 6.40638 1.75316 5.82511 2.46802 5.82511H10.892C11.6065 5.82511 12.1881 6.40638 12.1881 7.12084V8.17594H12.1877ZM4.79541 12.8288C4.72001 12.7534 4.67275 12.6499 4.67275 12.5366V12.0795C4.67275 11.9666 4.72001 11.8627 4.79541 11.7873C4.8708 11.7119 4.97432 11.6647 5.0876 11.6647H5.86965C5.96379 11.6647 6.03449 11.5893 6.03449 11.4998V10.7178C6.03449 10.6049 6.08176 10.501 6.15715 10.4256C6.23254 10.3502 6.33606 10.3029 6.44935 10.3029H6.90638C7.01928 10.3029 7.12319 10.3502 7.19858 10.4256C7.27397 10.501 7.32124 10.6045 7.32124 10.7178V11.4998C7.32124 11.594 7.39663 11.6647 7.49077 11.6647H8.27282C8.38571 11.6647 8.48962 11.7119 8.56501 11.7873C8.6404 11.8627 8.68767 11.9662 8.68767 12.0795V12.5413H8.68298C8.68298 12.6542 8.63572 12.7581 8.56032 12.8335C8.48493 12.9088 8.38141 12.9561 8.26813 12.9561H7.49077C7.39663 12.9561 7.32124 13.0315 7.32124 13.1256V13.9077C7.32124 14.0206 7.27397 14.1245 7.19858 14.1999C7.12319 14.2753 7.01967 14.3225 6.90638 14.3225H6.44935C6.33645 14.3225 6.23254 14.2753 6.15715 14.1999C6.08176 14.1245 6.03449 14.021 6.03449 13.9077V13.121C6.03449 13.0268 5.9591 12.9514 5.86965 12.9514H5.0876C4.97471 12.9514 4.8708 12.9042 4.79541 12.8288Z" fill="white"/>
</svg>
