<svg width="20" height="20" viewBox="0 0 20 20" fill="none" xmlns="http://www.w3.org/2000/svg">
<path d="M5.71429 19.2857C5.71429 19.6804 5.39464 20 5 20H2.14286C0.959375 20 0 19.0406 0 17.8571V15C0 14.6054 0.319643 14.2857 0.714286 14.2857C1.10893 14.2857 1.42857 14.6054 1.42857 15V17.8571C1.42857 18.2518 1.74821 18.5714 2.14286 18.5714H5C5.39464 18.5714 5.71429 18.8911 5.71429 19.2857ZM19.2857 14.2857C18.8911 14.2857 18.5714 14.6054 18.5714 15V17.8571C18.5714 18.2518 18.2518 18.5714 17.8571 18.5714H15C14.6054 18.5714 14.2857 18.8911 14.2857 19.2857C14.2857 19.6804 14.6054 20 15 20H17.8571C19.0406 20 20 19.0406 20 17.8571V15C20 14.6054 19.6804 14.2857 19.2857 14.2857ZM0.714286 5.71429C1.10893 5.71429 1.42857 5.39464 1.42857 5V2.14286C1.42857 1.74821 1.74821 1.42857 2.14286 1.42857H5C5.39464 1.42857 5.71429 1.10893 5.71429 0.714286C5.71429 0.319643 5.39464 0 5 0H2.14286C0.959375 0 0 0.959375 0 2.14286V5C0 5.39464 0.319643 5.71429 0.714286 5.71429ZM17.8571 0H15C14.6054 0 14.2857 0.319643 14.2857 0.714286C14.2857 1.10893 14.6054 1.42857 15 1.42857H17.8571C18.2518 1.42857 18.5714 1.74821 18.5714 2.14286V5C18.5714 5.39464 18.8911 5.71429 19.2857 5.71429C19.6804 5.71429 20 5.39464 20 5V2.14286C20 0.959375 19.0406 0 17.8571 0ZM7.85714 13.5714V15.7143C7.85714 16.5031 7.21741 17.1429 6.42857 17.1429H4.28571C3.49688 17.1429 2.85714 16.5031 2.85714 15.7143V13.5714C2.85714 12.7826 3.49688 12.1429 4.28571 12.1429H6.42857C7.21741 12.1429 7.85714 12.7826 7.85714 13.5714ZM6.42857 13.5714H4.28571V15.7143H6.42857V13.5714ZM15.7143 17.1429H13.5714C12.7826 17.1429 12.1429 16.5031 12.1429 15.7143V13.5714C12.1429 12.7826 12.7826 12.1429 13.5714 12.1429H15.7143C16.5031 12.1429 17.1429 12.7826 17.1429 13.5714V15.7143C17.1429 16.5031 16.5031 17.1429 15.7143 17.1429ZM13.5714 15.7143H15.7143V13.5714H13.5714V15.7143ZM9.28571 9.28571H3.57143C3.17679 9.28571 2.85714 9.60536 2.85714 10C2.85714 10.3946 3.17679 10.7143 3.57143 10.7143H9.28571V16.4286C9.28571 16.8232 9.60536 17.1429 10 17.1429C10.3946 17.1429 10.7143 16.8232 10.7143 16.4286V10.7143C10.7143 9.92545 10.0746 9.28571 9.28571 9.28571ZM2.85714 4.28571V7.14286C2.85714 7.5375 3.17679 7.85714 3.57143 7.85714C3.96607 7.85714 4.28571 7.5375 4.28571 7.14286V4.28571H7.14286C7.5375 4.28571 7.85714 3.96607 7.85714 3.57143C7.85714 3.17679 7.5375 2.85714 7.14286 2.85714H4.28571C3.49688 2.85714 2.85714 3.49688 2.85714 4.28571ZM12.1429 6.42857V4.28571C12.1429 3.49688 12.7826 2.85714 13.5714 2.85714H15.7143C16.5031 2.85714 17.1429 3.49688 17.1429 4.28571V6.42857C17.1429 7.21741 16.5031 7.85714 15.7143 7.85714H13.5714C12.7826 7.85714 12.1429 7.21741 12.1429 6.42857ZM13.5714 6.42857H15.7143V4.28571H13.5714V6.42857ZM12.8571 10.7143H13.5714C13.9661 10.7143 14.2857 10.3946 14.2857 10C14.2857 9.60536 13.9661 9.28571 13.5714 9.28571H12.8571C12.4625 9.28571 12.1429 9.60536 12.1429 10C12.1429 10.3946 12.4625 10.7143 12.8571 10.7143ZM15.7143 9.28571C15.3196 9.28571 15 9.60536 15 10C15 10.3946 15.3196 10.7143 15.7143 10.7143H16.4286C16.8232 10.7143 17.1429 10.3946 17.1429 10C17.1429 9.60536 16.8232 9.28571 16.4286 9.28571H15.7143ZM10 6.42857H6.42857C6.03393 6.42857 5.71429 6.74821 5.71429 7.14286C5.71429 7.5375 6.03393 7.85714 6.42857 7.85714H10C10.3946 7.85714 10.7143 7.5375 10.7143 7.14286C10.7143 6.74821 10.3946 6.42857 10 6.42857ZM10 2.85714C9.60536 2.85714 9.28571 3.17679 9.28571 3.57143V4.28571C9.28571 4.68036 9.60536 5 10 5C10.3946 5 10.7143 4.68036 10.7143 4.28571V3.57143C10.7143 3.17679 10.3946 2.85714 10 2.85714Z" fill="white"/>
</svg>
