<svg width="20" height="20" viewBox="0 0 20 20" fill="none" xmlns="http://www.w3.org/2000/svg">
<path fill-rule="evenodd" clip-rule="evenodd" d="M4.41852 3.48842C4.41852 3.87389 4.10631 4.18611 3.72084 4.18611C3.33537 4.18611 3.02315 3.87389 3.02315 3.48842C3.02315 3.10295 3.33537 2.79074 3.72084 2.79074C4.10631 2.79074 4.41852 3.10295 4.41852 3.48842ZM6.04674 2.79074C5.66127 2.79074 5.34906 3.10295 5.34906 3.48842C5.34906 3.87389 5.66127 4.18611 6.04674 4.18611C6.43221 4.18611 6.74443 3.87389 6.74443 3.48842C6.74443 3.10295 6.43221 2.79074 6.04674 2.79074ZM8.37221 2.79074C7.98674 2.79074 7.67453 3.10295 7.67453 3.48842C7.67453 3.87389 7.98674 4.18611 8.37221 4.18611C8.75768 4.18611 9.0699 3.87389 9.0699 3.48842C9.0699 3.10295 8.75768 2.79074 8.37221 2.79074ZM20.0004 3.02315V10.9301C20.0004 11.3151 19.6878 11.6278 19.3027 11.6278C18.9177 11.6278 18.6051 11.3151 18.6051 10.9301V6.97641H1.39537V16.9764C1.39537 17.876 2.12358 18.6042 3.02315 18.6042H10C10.385 18.6042 10.6977 18.9168 10.6977 19.3019C10.6977 19.6869 10.385 19.9996 10 19.9996H3.02315C1.35351 19.9996 0 18.6461 0 16.9764V3.02315C0 1.35351 1.35351 0 3.02315 0H16.9768C18.6465 0 20 1.35351 20 3.02315H20.0004ZM18.6051 5.58147V3.02315C18.6051 2.12358 17.8769 1.39537 16.9773 1.39537H3.02315C2.12358 1.39537 1.39537 2.12358 1.39537 3.02315V5.58147H18.6051ZM19.993 15.0373C19.9381 15.5379 19.5932 15.9591 19.1122 16.1108L17.2529 16.6969L18.7978 18.9024C19.0193 19.2177 18.9421 19.6533 18.6264 19.8735C18.3112 20.0951 17.8755 20.0179 17.6545 19.7022L16.1104 17.4966L14.9239 19.0429C14.6169 19.4427 14.1033 19.6232 13.614 19.5033C13.1247 19.3843 12.7515 18.9862 12.6652 18.4904C12.3468 16.6838 11.7712 13.4121 11.4603 11.6465C11.3749 11.1608 11.5785 10.6689 11.9823 10.3859C12.3869 10.1029 12.9181 10.0798 13.3458 10.3262C14.8986 11.2218 17.7757 12.8814 19.3647 13.7989C19.8012 14.0501 20.0475 14.5367 19.9926 15.0368L19.993 15.0373ZM18.4206 14.8655L12.881 11.6692L13.9899 17.9689L15.5823 15.8924C15.6687 15.779 15.789 15.6953 15.9255 15.6525L18.4206 14.8655Z" fill="white"/>
</svg>
