<svg width="20" height="20" viewBox="0 0 20 20" fill="none" xmlns="http://www.w3.org/2000/svg">
<path fill-rule="evenodd" clip-rule="evenodd" d="M17.0043 2.9066C15.1331 1.03322 12.6447 0.00128173 9.99374 3.05176e-05C4.53095 3.05176e-05 0.0853952 4.44559 0.0832056 9.90963C0.08258 11.6563 0.538647 13.3614 1.40605 14.8644L0 20L5.25384 18.6218C6.70149 19.4113 8.33119 19.8277 9.98968 19.828H9.99374C15.4556 19.828 19.9021 15.3821 19.904 9.91776C19.9052 7.26957 18.8752 4.77966 17.004 2.9066H17.0043ZM9.99374 18.1542H9.9903C8.51231 18.1536 7.06278 17.7563 5.7978 17.0059L5.4972 16.8273L2.37949 17.6452L3.21155 14.6057L3.01573 14.2942C2.19119 12.9826 1.75576 11.4668 1.75639 9.91057C1.75795 5.36898 5.45341 1.67415 9.99687 1.67415C12.1971 1.67478 14.2654 2.5328 15.8203 4.08993C17.3753 5.64706 18.2314 7.71657 18.2308 9.91745C18.2289 14.4593 14.5338 18.1548 9.99343 18.1548L9.99374 18.1542ZM14.5119 11.9851C14.2644 11.8612 13.0467 11.2622 12.8196 11.1793C12.5928 11.0967 12.4277 11.0554 12.2625 11.3032C12.0973 11.5509 11.6228 12.1089 11.4783 12.2741C11.3338 12.4393 11.1896 12.4602 10.9418 12.336C10.6941 12.2122 9.89646 11.9507 8.95055 11.107C8.21452 10.4505 7.71748 9.63937 7.57296 9.39163C7.42876 9.14357 7.57171 9.02252 7.6815 8.88614C7.94958 8.55332 8.21796 8.20423 8.30054 8.03907C8.38312 7.87391 8.34183 7.72908 8.2799 7.60521C8.21827 7.48134 7.72279 6.26235 7.51666 5.76655C7.31552 5.2839 7.11158 5.34896 6.95955 5.34145C6.81535 5.33426 6.65019 5.3327 6.48503 5.3327C6.31987 5.3327 6.0518 5.39463 5.82471 5.64268C5.59792 5.89074 4.95824 6.48975 4.95824 7.70844C4.95824 8.92712 5.84566 10.1048 5.96922 10.27C6.09278 10.4351 7.71529 12.9363 10.1993 14.0089C10.7901 14.2642 11.2512 14.4165 11.6109 14.5307C12.2043 14.7193 12.7439 14.6924 13.1706 14.6289C13.6463 14.5576 14.6354 14.0299 14.8422 13.4515C15.0486 12.8731 15.0486 12.3773 14.9864 12.2738C14.9248 12.1706 14.7596 12.1086 14.5119 11.9848V11.9851Z" fill="white"/>
</svg>
